<svg width="1024" height="1024" viewBox="0 0 1024 1024" fill="none" xmlns="http://www.w3.org/2000/svg">
<rect x="82" y="82" width="860" height="860" rx="220" fill="url(#g)"/>
<path d="M205 708c170 0 220 35 307 86 87-51 137-86 307-86v62c-150 0-207 32-307 92-100-60-157-92-307-92v-62z" fill="white"/>
<path d="M256 450c130-40 205-10 256 42v302c-70-60-135-92-300-92l44-252z" fill="white"/>
<path d="M768 450c-130-40-205-10-256 42v302c70-60 135-92 300-92l-44-252z" fill="#FAFDFC"/>
<path d="M512 648V485" stroke="#65A30D" stroke-width="34" stroke-linecap="round"/>
<ellipse cx="437" cy="555" rx="78" ry="50" transform="rotate(38 437 555)" fill="#A3E635" stroke="#65A30D" stroke-width="8"/>
<ellipse cx="587" cy="555" rx="78" ry="50" transform="rotate(-38 587 555)" fill="#A3E635" stroke="#65A30D" stroke-width="8"/>
<circle cx="512" cy="406" r="78" fill="#F59E0B"/>
<text x="512" y="448" text-anchor="middle" font-family="Arial, sans-serif" font-weight="700" font-size="130" fill="white">¥</text>
<defs><linearGradient id="g" x1="82" y1="82" x2="942" y2="942"><stop stop-color="#22C55E"/><stop offset="1" stop-color="#06B6D4"/></linearGradient></defs>
</svg>